<?plantuml 1.2026.1?><svg xmlns="http://www.w3.org/2000/svg" xmlns:xlink="http://www.w3.org/1999/xlink" contentStyleType="text/css" data-diagram-type="STATE" height="649px" preserveAspectRatio="none" style="width:461px;height:649px;background:#4A556822;" version="1.1" viewBox="0 0 461 649" width="461px" zoomAndPan="magnify"><title>Game - UML State Machine</title><defs/><g><rect fill="#4A5568" fill-opacity="0.13333" height="649" style="stroke:none;stroke-width:1;" width="461" x="0" y="0"/><g class="title" data-source-line="26"><rect fill="none" height="36.2969" style="stroke:#718096;stroke-width:1;" width="232.8643" x="109.7971" y="60"/><text fill="#718096" font-family="sans-serif" font-size="14" font-weight="bold" lengthAdjust="spacing" textLength="212.8643" x="119.7971" y="82.9951">Game - UML State Machine</text></g><g><rect fill="#EDF2F7" height="78.2031" rx="5" ry="5" style="stroke:#4A5568;stroke-width:0.5;" width="196.3086" x="192" y="230.2969"/><line style="stroke:#4A5568;stroke-width:0.5;" x1="192" x2="388.3086" y1="256.5938" y2="256.5938"/><text fill="#2D3748" font-family="sans-serif" font-size="14" lengthAdjust="spacing" textLength="81.375" x="249.4668" y="248.292">waitInHeart</text><text fill="#2D3748" font-family="sans-serif" font-size="12" lengthAdjust="spacing" textLength="39.5859" x="197" y="272.7324">entry /</text><text fill="#2D3748" font-family="sans-serif" font-size="12" lengthAdjust="spacing" textLength="168.6797" x="204.6289" y="286.7012">display.show(Image.HEART)</text><text fill="#2D3748" font-family="sans-serif" font-size="12" lengthAdjust="spacing" textLength="166.2422" x="204.6289" y="300.6699">myTimer.start(timeInHeart)</text></g><g><rect fill="#EDF2F7" height="78.2031" rx="5" ry="5" style="stroke:#4A5568;stroke-width:0.5;" width="208.3086" x="37" y="385.2969"/><line style="stroke:#4A5568;stroke-width:0.5;" x1="37" x2="245.3086" y1="411.5938" y2="411.5938"/><text fill="#2D3748" font-family="sans-serif" font-size="14" lengthAdjust="spacing" textLength="98.2188" x="92.0449" y="403.292">waitInPacman</text><text fill="#2D3748" font-family="sans-serif" font-size="12" lengthAdjust="spacing" textLength="39.5859" x="42" y="427.7324">entry /</text><text fill="#2D3748" font-family="sans-serif" font-size="12" lengthAdjust="spacing" textLength="179.5605" x="49.6289" y="441.7012">display.show(Image.PACMAN)</text><text fill="#2D3748" font-family="sans-serif" font-size="12" lengthAdjust="spacing" textLength="180.6797" x="49.6289" y="455.6699">myTimer.start(timeInPacman)</text></g><g><rect fill="#EDF2F7" height="78.2031" rx="5" ry="5" style="stroke:#4A5568;stroke-width:0.5;" width="198.541" x="187.5" y="540.2969"/><line style="stroke:#4A5568;stroke-width:0.5;" x1="187.5" x2="386.041" y1="566.5938" y2="566.5938"/><text fill="#2D3748" font-family="sans-serif" font-size="14" lengthAdjust="spacing" textLength="83.4805" x="245.0303" y="558.292">waitInGhost</text><text fill="#2D3748" font-family="sans-serif" font-size="12" lengthAdjust="spacing" textLength="39.5859" x="192.5" y="582.7324">entry /</text><text fill="#2D3748" font-family="sans-serif" font-size="12" lengthAdjust="spacing" textLength="170.9121" x="200.1289" y="596.7012">display.show(Image.GHOST)</text><text fill="#2D3748" font-family="sans-serif" font-size="12" lengthAdjust="spacing" textLength="168.0469" x="200.1289" y="610.6699">myTimer.start(timeInGhost)</text></g><ellipse cx="290" cy="143.2969" fill="#4A5568" fill-opacity="0.13333" rx="10" ry="10" style="stroke:#718096;stroke-width:1;"/><!--link *start* to waitInHeart--><g class="link" data-entity-1="ent0002" data-entity-2="ent0002" data-link-type="dependency" data-source-line="28" id="lnk3"><path d="M290,153.6169 C290,169.6669 290,197.3869 290,224.1269" fill="none" id="*start*-to-waitInHeart" style="stroke:#718096;stroke-width:1;"/><polygon fill="#718096" points="290,230.1269,294,221.1269,290,225.1269,286,221.1269,290,230.1269" style="stroke:#718096;stroke-width:1;"/><text fill="#718096" font-family="sans-serif" font-size="13" lengthAdjust="spacing" textLength="137.4585" x="291" y="196.3638">Game() (constructor)</text></g><!--link waitInHeart to waitInPacman--><g class="link" data-entity-1="ent0002" data-entity-2="ent0003" data-link-type="dependency" data-source-line="30" id="lnk4"><path d="M191.95,308.3969 C179.44,316.6769 167.92,326.5669 159,338.2969 C148.86,351.6269 144.919,363.429 142.819,379.259" fill="none" id="waitInHeart-to-waitInPacman" style="stroke:#718096;stroke-width:1;"/><polygon fill="#718096" points="142.03,385.2069,147.1788,376.8111,142.6875,380.2503,139.2483,375.759,142.03,385.2069" style="stroke:#718096;stroke-width:1;"/><text fill="#718096" font-family="sans-serif" font-size="13" lengthAdjust="spacing" textLength="62.0166" x="160" y="351.3638">Timeout /</text></g><!--link waitInPacman to waitInHeart--><g class="link" data-entity-1="ent0003" data-entity-2="ent0002" data-link-type="dependency" data-source-line="34" id="lnk7"><path d="M193.83,385.1269 C205.26,375.8969 216.93,365.6869 227,355.2969 C240.81,341.0569 250.7114,328.5926 261.5514,313.2926" fill="none" id="waitInPacman-to-waitInHeart" style="stroke:#718096;stroke-width:1;"/><polygon fill="#718096" points="265.02,308.3969,256.5532,313.4281,262.1295,312.4767,263.0809,318.053,265.02,308.3969" style="stroke:#718096;stroke-width:1;"/><text fill="#718096" font-family="sans-serif" font-size="13" lengthAdjust="spacing" textLength="17.4053" x="242" y="351.3638">A /</text></g><!--link waitInHeart to waitInGhost--><g class="link" data-entity-1="ent0002" data-entity-2="ent0004" data-link-type="dependency" data-source-line="31" id="lnk5"><path d="M289.63,308.3769 C289.05,367.4369 288.0087,474.5172 287.4287,533.8272" fill="none" id="waitInHeart-to-waitInGhost" style="stroke:#718096;stroke-width:1;"/><polygon fill="#718096" points="287.37,539.8269,291.4578,530.8664,287.4189,534.8271,283.4582,530.7882,287.37,539.8269" style="stroke:#718096;stroke-width:1;"/><text fill="#718096" font-family="sans-serif" font-size="13" lengthAdjust="spacing" textLength="17.4053" x="290" y="428.8638">A /</text></g><!--link waitInGhost to waitInHeart--><g class="link" data-entity-1="ent0004" data-entity-2="ent0002" data-link-type="dependency" data-source-line="36" id="lnk8"><path d="M304.73,540.1569 C308.45,530.6069 311.88,520.2369 314,510.2969 C329.96,435.5269 329.88,413.4769 316,338.2969 C314.16,328.3569 313.039,323.6077 309.469,314.0477" fill="none" id="waitInGhost-to-waitInHeart" style="stroke:#718096;stroke-width:1;"/><polygon fill="#718096" points="307.37,308.4269,306.7713,318.2575,309.1192,313.1109,314.2658,315.4588,307.37,308.4269" style="stroke:#718096;stroke-width:1;"/><text fill="#718096" font-family="sans-serif" font-size="13" lengthAdjust="spacing" textLength="62.0166" x="327" y="428.8638">Timeout /</text></g><!--link waitInPacman to waitInGhost--><g class="link" data-entity-1="ent0003" data-entity-2="ent0004" data-link-type="dependency" data-source-line="33" id="lnk6"><path d="M142.09,463.3469 C144.2,479.1669 148.93,496.9269 159,510.2969 C167.78,521.9569 174.1695,528.471 186.5095,536.761" fill="none" id="waitInPacman-to-waitInGhost" style="stroke:#718096;stroke-width:1;"/><polygon fill="#718096" points="191.49,540.1069,186.2499,531.7677,187.3396,537.3186,181.7887,538.4084,191.49,540.1069" style="stroke:#718096;stroke-width:1;"/><text fill="#718096" font-family="sans-serif" font-size="13" lengthAdjust="spacing" textLength="62.0166" x="160" y="506.3638">Timeout /</text></g><!--link waitInGhost to waitInPacman--><g class="link" data-entity-1="ent0004" data-entity-2="ent0003" data-link-type="dependency" data-source-line="37" id="lnk9"><path d="M263.48,540.1169 C253.19,524.8069 240.41,507.4569 227,493.2969 C217.05,482.7969 210.0944,476.3109 198.6744,467.0709" fill="none" id="waitInGhost-to-waitInPacman" style="stroke:#718096;stroke-width:1;"/><polygon fill="#718096" points="194.01,463.2969,198.4906,472.0675,197.897,466.4419,203.5226,465.8483,194.01,463.2969" style="stroke:#718096;stroke-width:1;"/><text fill="#718096" font-family="sans-serif" font-size="13" lengthAdjust="spacing" textLength="17.4053" x="242" y="506.3638">A /</text></g><?plantuml-src VP1RQuD048NVzrSCz4KBkPbhImZOj4q2iGr9-jJsOT2DaUfkMJS4AVdlNLTpqLmUXE7CsNC-fn_B9AG38ZYNy4S0dj3zyGNVC6_8GoxWheNjTgTdMQ2Mhvp9NEusUlM7ZjAc0QDbpK7X1moQTJNFqFC2vaEZJdQ4n18bVGxG5nZfFYtewK8tzLRMggjt9pKPaLPFW2olsMrbwZoB48oAj1PWfpuKWc_pealCb_zkfw3xjVn8XCX0XXH6656em8SpXON6Tz1TgqX2Fk-_eL8Pm1O3EM5ZYaB2e_OR9XWkPx4K6rToOPAYXJ8f4gXzCG0lY7z3JAhncc-DIOG-hOvVxFdIJ9THiWmYAghgR48QKirvHZ7mo313DqAc6j9tV2EXTiKuMlCu9R4FZiFJst0pU-ZORrVfiXIpc7bUMyOxC-ulTUJRFxsDDng_BwxVJcUOXS3poZ9RsNSuLChs3m00?></g></svg>