<?plantuml 1.2026.1?><svg xmlns="http://www.w3.org/2000/svg" xmlns:xlink="http://www.w3.org/1999/xlink" contentStyleType="text/css" data-diagram-type="SEQUENCE" height="608px" preserveAspectRatio="none" style="width:562px;height:608px;background:#4A556822;" version="1.1" viewBox="0 0 562 608" width="562px" zoomAndPan="magnify"><title>App Sequence Diagram for pixel1</title><defs/><g><rect fill="#4A5568" fill-opacity="0.13333" height="608" style="stroke:none;stroke-width:1;" width="562" x="0" y="0"/><rect fill="none" height="36.2969" style="stroke:#718096;stroke-width:1;" width="284.5234" x="140.562" y="60"/><text fill="#718096" font-family="sans-serif" font-size="14" font-weight="bold" lengthAdjust="spacing" textLength="264.5234" x="150.562" y="82.9951">App Sequence Diagram for pixel1</text><g><title>pixel1.Pixel</title><rect fill="#4A5568" fill-opacity="0.13333" height="58.2656" style="stroke:#718096;stroke-width:1;" width="10" x="187.499" y="234.7266"/></g><g><title>pixel1.Pixel</title><rect fill="#4A5568" fill-opacity="0.13333" height="124.5313" style="stroke:#718096;stroke-width:1;" width="10" x="187.499" y="346.2578"/></g><g><title>pixel1.myTimer.Timer</title><rect fill="#4A5568" fill-opacity="0.13333" height="68.2656" style="stroke:#718096;stroke-width:1;" width="10" x="368.7075" y="375.3906"/></g><rect fill="#4A5568" fill-opacity="0.13333" height="177.7969" style="stroke:#718096;stroke-width:1.5;" width="437.9365" x="40" y="307.9922"/><rect fill="#4A5568" fill-opacity="0.13333" height="46.2656" style="stroke:#718096;stroke-width:1.5;" width="332.5918" x="135.3447" y="390.3906"/><g class="participant-lifeline" data-entity-uid="part1" data-qualified-name="Main" id="part1-lifeline"><g><title>Main</title><rect fill="#000000" fill-opacity="0.00000" height="299.1953" width="8" x="65.7104" y="203.5938"/><line style="stroke:#718096;stroke-width:0.5;stroke-dasharray:5,5;" x1="69" x2="69" y1="203.5938" y2="502.7891"/></g></g><g class="participant-lifeline" data-entity-uid="part2" data-qualified-name="P1" id="part2-lifeline"><g><title>pixel1.Pixel</title><rect fill="#000000" fill-opacity="0.00000" height="299.1953" width="8" x="188.499" y="203.5938"/><line style="stroke:#718096;stroke-width:0.5;stroke-dasharray:5,5;" x1="192.3447" x2="192.3447" y1="203.5938" y2="502.7891"/></g></g><g class="participant-lifeline" data-entity-uid="part3" data-qualified-name="T1" id="part3-lifeline"><g><title>pixel1.myTimer.Timer</title><rect fill="#000000" fill-opacity="0.00000" height="299.1953" width="8" x="369.7075" y="203.5938"/><line style="stroke:#718096;stroke-width:0.5;stroke-dasharray:5,5;" x1="373.4785" x2="373.4785" y1="203.5938" y2="502.7891"/></g></g><g class="participant-lifeline" data-entity-uid="part4" data-qualified-name="D" id="part4-lifeline"><g><title>display</title><rect fill="#000000" fill-opacity="0.00000" height="299.1953" width="8" x="495.792" y="203.5938"/><line style="stroke:#718096;stroke-width:0.5;stroke-dasharray:5,5;" x1="498.9365" x2="498.9365" y1="203.5938" y2="502.7891"/></g></g><g class="participant participant-head" data-entity-uid="part1" data-qualified-name="Main" id="part1-head"><text fill="#718096" font-family="sans-serif" font-size="14" lengthAdjust="spacing" textLength="33.4209" x="50" y="200.292">Main</text><ellipse cx="69.7104" cy="135.7969" fill="#4A5568" fill-opacity="0.13333" rx="8" ry="8" style="stroke:#718096;stroke-width:0.5;"/><path d="M69.7104,143.7969 L69.7104,170.7969 M56.7104,151.7969 L82.7104,151.7969 M69.7104,170.7969 L56.7104,185.7969 M69.7104,170.7969 L82.7104,185.7969" fill="none" style="stroke:#718096;stroke-width:0.5;"/></g><g class="participant participant-tail" data-entity-uid="part1" data-qualified-name="Main" id="part1-tail"><text fill="#718096" font-family="sans-serif" font-size="14" lengthAdjust="spacing" textLength="33.4209" x="50" y="514.7842">Main</text><ellipse cx="69.7104" cy="526.5859" fill="#4A5568" fill-opacity="0.13333" rx="8" ry="8" style="stroke:#718096;stroke-width:0.5;"/><path d="M69.7104,534.5859 L69.7104,561.5859 M56.7104,542.5859 L82.7104,542.5859 M69.7104,561.5859 L56.7104,576.5859 M69.7104,561.5859 L82.7104,576.5859" fill="none" style="stroke:#718096;stroke-width:0.5;"/></g><g class="participant participant-head" data-entity-uid="part2" data-qualified-name="P1" id="part2-head"><rect fill="#EDF2F7" height="30.2969" rx="2.5" ry="2.5" style="stroke:#4A5568;stroke-width:0.5;" width="94.3086" x="145.3447" y="172.2969"/><text fill="#2D3748" font-family="sans-serif" font-size="14" lengthAdjust="spacing" textLength="80.3086" x="152.3447" y="192.292">pixel1:Pixel</text></g><g class="participant participant-tail" data-entity-uid="part2" data-qualified-name="P1" id="part2-tail"><rect fill="#EDF2F7" height="30.2969" rx="2.5" ry="2.5" style="stroke:#4A5568;stroke-width:0.5;" width="94.3086" x="145.3447" y="501.7891"/><text fill="#2D3748" font-family="sans-serif" font-size="14" lengthAdjust="spacing" textLength="80.3086" x="152.3447" y="521.7842">pixel1:Pixel</text></g><g class="participant participant-head" data-entity-uid="part3" data-qualified-name="T1" id="part3-head"><rect fill="#EDF2F7" height="30.2969" rx="2.5" ry="2.5" style="stroke:#4A5568;stroke-width:0.5;" width="168.458" x="289.4785" y="172.2969"/><text fill="#2D3748" font-family="sans-serif" font-size="14" lengthAdjust="spacing" textLength="154.458" x="296.4785" y="192.292">pixel1.myTimer:Timer</text></g><g class="participant participant-tail" data-entity-uid="part3" data-qualified-name="T1" id="part3-tail"><rect fill="#EDF2F7" height="30.2969" rx="2.5" ry="2.5" style="stroke:#4A5568;stroke-width:0.5;" width="168.458" x="289.4785" y="501.7891"/><text fill="#2D3748" font-family="sans-serif" font-size="14" lengthAdjust="spacing" textLength="154.458" x="296.4785" y="521.7842">pixel1.myTimer:Timer</text></g><g class="participant participant-head" data-entity-uid="part4" data-qualified-name="D" id="part4-head"><rect fill="#EDF2F7" height="30.2969" rx="2.5" ry="2.5" style="stroke:#4A5568;stroke-width:0.5;" width="63.7109" x="467.9365" y="172.2969"/><text fill="#2D3748" font-family="sans-serif" font-size="14" lengthAdjust="spacing" textLength="49.7109" x="474.9365" y="192.292">display</text></g><g class="participant participant-tail" data-entity-uid="part4" data-qualified-name="D" id="part4-tail"><rect fill="#EDF2F7" height="30.2969" rx="2.5" ry="2.5" style="stroke:#4A5568;stroke-width:0.5;" width="63.7109" x="467.9365" y="501.7891"/><text fill="#2D3748" font-family="sans-serif" font-size="14" lengthAdjust="spacing" textLength="49.7109" x="474.9365" y="521.7842">display</text></g><g><title>pixel1.Pixel</title><rect fill="#4A5568" fill-opacity="0.13333" height="58.2656" style="stroke:#718096;stroke-width:1;" width="10" x="187.499" y="234.7266"/></g><g><title>pixel1.Pixel</title><rect fill="#4A5568" fill-opacity="0.13333" height="124.5313" style="stroke:#718096;stroke-width:1;" width="10" x="187.499" y="346.2578"/></g><g><title>pixel1.myTimer.Timer</title><rect fill="#4A5568" fill-opacity="0.13333" height="68.2656" style="stroke:#718096;stroke-width:1;" width="10" x="368.7075" y="375.3906"/></g><g class="message" data-entity-1="part1" data-entity-2="part2" id="msg1"><polygon fill="#718096" points="175.499,230.7266,185.499,234.7266,175.499,238.7266,179.499,234.7266" style="stroke:#718096;stroke-width:1;"/><line style="stroke:#718096;stroke-width:1;" x1="69.7104" x2="181.499" y1="234.7266" y2="234.7266"/><text fill="#718096" font-family="sans-serif" font-size="13" lengthAdjust="spacing" textLength="98.7886" x="76.7104" y="229.6606">Pixel(0,0,1000)</text></g><g class="message" data-entity-1="part2" data-entity-2="part4" id="msg2"><polygon fill="#718096" points="487.792,259.8594,497.792,263.8594,487.792,267.8594,491.792,263.8594" style="stroke:#718096;stroke-width:1;"/><line style="stroke:#718096;stroke-width:1;" x1="197.499" x2="493.792" y1="263.8594" y2="263.8594"/><text fill="#718096" font-family="sans-serif" font-size="13" lengthAdjust="spacing" textLength="100.7563" x="204.499" y="258.7935">set_pixel(0,0,9)</text></g><g class="message" data-entity-1="part2" data-entity-2="part3" id="msg3"><polygon fill="#718096" points="361.7075,288.9922,371.7075,292.9922,361.7075,296.9922,365.7075,292.9922" style="stroke:#718096;stroke-width:1;"/><line style="stroke:#718096;stroke-width:1;" x1="192.499" x2="367.7075" y1="292.9922" y2="292.9922"/><text fill="#718096" font-family="sans-serif" font-size="13" lengthAdjust="spacing" textLength="40.4219" x="199.499" y="287.9263">start()</text></g><path d="M40,307.9922 L116.624,307.9922 L116.624,315.125 L106.624,325.125 L40,325.125 L40,307.9922" fill="#4A5568" fill-opacity="0.13333" style="stroke:#718096;stroke-width:1.5;"/><rect fill="none" height="177.7969" style="stroke:#718096;stroke-width:1.5;" width="437.9365" x="40" y="307.9922"/><text fill="#718096" font-family="sans-serif" font-size="13" font-weight="bold" lengthAdjust="spacing" textLength="31.624" x="55" y="321.0591">loop</text><text fill="#718096" font-family="sans-serif" font-size="11" font-weight="bold" lengthAdjust="spacing" textLength="164.5864" x="131.624" y="320.2026">[while True (cada ~20ms)]</text><g class="message" data-entity-1="part1" data-entity-2="part2" id="msg4"><polygon fill="#718096" points="175.499,342.2578,185.499,346.2578,175.499,350.2578,179.499,346.2578" style="stroke:#718096;stroke-width:1;"/><line style="stroke:#718096;stroke-width:1;" x1="69.7104" x2="181.499" y1="346.2578" y2="346.2578"/><text fill="#718096" font-family="sans-serif" font-size="13" lengthAdjust="spacing" textLength="55.9482" x="76.7104" y="341.1919">update()</text></g><g class="message" data-entity-1="part2" data-entity-2="part3" id="msg5"><polygon fill="#718096" points="356.7075,371.3906,366.7075,375.3906,356.7075,379.3906,360.7075,375.3906" style="stroke:#718096;stroke-width:1;"/><line style="stroke:#718096;stroke-width:1;" x1="197.499" x2="362.7075" y1="375.3906" y2="375.3906"/><text fill="#718096" font-family="sans-serif" font-size="13" lengthAdjust="spacing" textLength="55.9482" x="204.499" y="370.3247">update()</text></g><path d="M135.3447,390.3906 L199.7876,390.3906 L199.7876,397.5234 L189.7876,407.5234 L135.3447,407.5234 L135.3447,390.3906" fill="#4A5568" fill-opacity="0.13333" style="stroke:#718096;stroke-width:1.5;"/><rect fill="none" height="46.2656" style="stroke:#718096;stroke-width:1.5;" width="332.5918" x="135.3447" y="390.3906"/><text fill="#718096" font-family="sans-serif" font-size="13" font-weight="bold" lengthAdjust="spacing" textLength="19.4429" x="150.3447" y="403.4575">alt</text><text fill="#718096" font-family="sans-serif" font-size="11" font-weight="bold" lengthAdjust="spacing" textLength="106.7397" x="214.7876" y="402.6011">[Ocurre Timeout]</text><g class="message" data-entity-1="part3" data-entity-2="part2" id="msg6"><polygon fill="#718096" points="208.499,424.6563,198.499,428.6563,208.499,432.6563,204.499,428.6563" style="stroke:#718096;stroke-width:1;"/><line style="stroke:#718096;stroke-width:1;" x1="202.499" x2="367.7075" y1="428.6563" y2="428.6563"/><text fill="#718096" font-family="sans-serif" font-size="13" lengthAdjust="spacing" textLength="147.2085" x="214.499" y="423.5903">post_event("Timeout")</text></g><g class="message" data-entity-1="part2" data-entity-2="part2" id="msg7"><line style="stroke:#718096;stroke-width:1;" x1="197.499" x2="239.499" y1="469.7891" y2="469.7891"/><line style="stroke:#718096;stroke-width:1;" x1="239.499" x2="239.499" y1="469.7891" y2="482.7891"/><line style="stroke:#718096;stroke-width:1;" x1="192.499" x2="239.499" y1="482.7891" y2="482.7891"/><polygon fill="#718096" points="202.499,478.7891,192.499,482.7891,202.499,486.7891,198.499,482.7891" style="stroke:#718096;stroke-width:1;"/><text fill="#718096" font-family="sans-serif" font-size="13" lengthAdjust="spacing" textLength="107.3198" x="204.499" y="464.7231">procesa eventos</text></g><?plantuml-src VLBBRjim4BppAnRkHGBIbb8UJemWG1kZfmOr4Ds3XRXsYSeaIr99ZCBzzYvf9M02emT9vCpixEn2ro7k1heHtje8VmJ0L-n_RRmTZRgrW_NmuGpFpoyksnQO_6PDdE1vSoclBXZxhWszn-xGRxI1Kydd5IgbpGOQAVP21FezakbfgN7ZSPjRElHHzzgXEKGu4eBKkbtFCrVqEqJBQ96iLQVpiuJk-HdqcbB5P7miR9AXz_RfFvhZe-zveklFqmP5r74W-E8St4z3mikKQovp-fc6HWZi8z_kK1jH3Zuxy8jL-im00woQOu9Fsrsdj-GN-Ps5tJkXqi4DkClSKeZK2ZxUi1yi8DjNyaIUD5BAEgNHZnWfTMC1ovQi2XGVtAlogfweBZc4oBsgMYWgQuKOh7Nmz5Fp3Ze_4bGzAeI_hTo6ElyIHOhHAQwh4bwQf3qNdGfLeUiEEaQ623_wqNl6U1TsZ1C1gVobbRCXFj0ZcLZD9jcideHaL3uLex1x4MFLi86tFGM4x653PiMRcZH-ile7?></g></svg>